 <svg  version="1.0" xmlns="http://www.w3.org/2000/svg"  width="300.000000pt" height="323.000000pt" viewBox="0 0 300.000000 323.000000"  preserveAspectRatio="xMidYMid meet">  <g transform="translate(0.000000,323.000000) scale(0.100000,-0.100000)" fill="#ffffff" stroke="none"> <path d="M1019 3211 c-38 -12 -71 -31 -99 -56 -15 -14 -48 -28 -82 -34 -131 -24 -223 -110 -271 -252 -3 -9 -18 -20 -33 -23 -75 -19 -172 -104 -214 -187 -12 -23 -25 -69 -27 -100 -5 -54 -9 -60 -44 -85 -81 -56 -137 -163 -146 -278 -6 -77 8 -164 34 -204 13 -21 11 -26 -26 -69 -51 -57 -90 -138 -96 -200 -6 -53 -9 -58 45 62 15 33 46 85 69 115 45 59 48 82 15 155 -5 11 -9 61 -9 110 1 78 4 98 29 149 16 32 57 88 91 125 55 59 63 71 68 118 3 28 15 69 26 90 34 65 144 163 184 163 21 0 62 50 93 113 15 32 43 72 62 88 41 36 123 76 173 84 19 3 58 20 85 37 27 18 74 44 104 59 50 25 52 27 25 27 -16 0 -42 -3 -56 -7z"/> <path d="M1150 3217 c0 -4 28 -20 63 -37 69 -33 112 -72 148 -135 l24 -40 3 -893 c2 -723 1 -897 -10 -910 -10 -13 -10 -14 0 -8 10 6 12 -81 10 -461 -3 -534 3 -493 -97 -593 -129 -129 -271 -142 -421 -40 -49 33 -66 39 -129 44 -148 12 -263 106 -300 243 -8 29 -23 51 -48 70 -136 104 -169 168 -172 325 -1 31 -10 45 -62 95 -72 69 -107 137 -115 225 -7 69 13 156 47 212 27 44 24 66 -19 154 -21 42 -44 88 -50 102 -10 22 -11 23 -11 4 -1 -35 28 -119 55 -159 l25 -38 -33 -66 c-29 -58 -33 -77 -36 -161 -3 -77 0 -105 16 -148 25 -66 76 -134 122 -163 34 -22 35 -24 36 -93 1 -91 31 -169 89 -233 24 -27 61 -57 82 -68 36 -17 41 -25 51 -72 19 -92 97 -183 196 -229 38 -18 69 -24 122 -24 65 0 73 -2 98 -29 51 -53 118 -75 226 -75 81 0 103 4 150 26 77 36 131 86 171 160 l34 63 0 1375 0 1375 -23 42 c-31 60 -79 111 -123 133 -38 20 -119 38 -119 27z"/> <path d="M1720 3199 c-58 -26 -105 -72 -138 -134 l-27 -50 0 -1375 0 -1375 24 -49 c32 -66 109 -141 179 -174 49 -23 70 -27 152 -27 84 0 102 3 152 28 32 16 66 39 77 53 17 22 26 24 93 24 63 0 84 5 136 31 76 37 144 111 171 185 12 30 21 61 21 69 0 8 20 26 45 41 105 61 165 170 165 299 0 72 1 75 28 89 40 21 96 86 123 143 20 40 23 65 24 154 0 101 -2 110 -34 177 l-34 70 22 30 c100 142 79 387 -45 519 -35 37 -35 37 -20 73 45 102 46 213 4 317 -24 59 -25 63 -8 78 28 26 44 97 31 137 -23 68 -99 115 -167 102 -29 -5 -33 -2 -61 48 -46 80 -120 140 -214 171 -10 3 -24 28 -34 56 -19 59 -89 140 -149 176 -23 14 -69 28 -102 33 -46 6 -67 15 -93 40 -37 33 -108 63 -150 61 -23 0 -20 -4 19 -23 25 -12 70 -38 100 -57 31 -20 73 -39 95 -43 106 -20 199 -92 249 -195 28 -58 37 -67 95 -97 77 -40 89 -50 158 -137 35 -43 60 -66 69 -63 8 3 14 2 14 -3 0 -4 11 -6 25 -3 36 6 84 -16 100 -49 20 -38 18 -75 -5 -128 -24 -52 -25 -67 -4 -106 9 -16 17 -41 18 -55 2 -14 7 -34 11 -44 10 -22 -10 -172 -24 -190 -8 -10 -15 -47 -12 -72 1 -6 15 -29 32 -50 56 -70 99 -172 100 -239 2 -86 -8 -130 -47 -212 -19 -39 -34 -76 -34 -81 0 -4 11 -31 24 -58 13 -27 29 -67 35 -89 14 -52 15 -175 0 -175 -5 0 -8 -4 -5 -8 11 -18 -52 -121 -103 -169 -53 -49 -54 -50 -61 -124 -9 -79 -20 -133 -37 -164 -14 -25 -108 -115 -121 -115 -14 0 -39 -32 -47 -60 -17 -58 -61 -134 -100 -171 -67 -64 -132 -91 -222 -92 -49 0 -61 -5 -114 -44 -43 -31 -79 -48 -128 -60 -65 -15 -73 -15 -133 1 -109 30 -209 121 -242 222 -15 46 -17 169 -17 1375 0 1291 1 1325 20 1377 28 75 74 123 154 160 37 18 67 34 67 37 0 12 -59 3 -100 -16z"/> <path d="M1035 3153 c-22 -8 -53 -26 -69 -41 -32 -30 -65 -96 -66 -129 0 -37 -18 -26 -31 17 -21 68 -80 67 -155 -2 -44 -41 -62 -71 -84 -140 -13 -44 -19 -48 -95 -79 -61 -24 -155 -105 -155 -134 0 -7 -5 -15 -10 -17 -6 -2 -13 -33 -16 -69 -8 -79 5 -122 52 -184 48 -64 17 -59 -45 7 l-48 51 -37 -22 c-41 -26 -96 -100 -96 -130 0 -11 -5 -23 -11 -27 -8 -4 -10 -36 -7 -98 4 -79 10 -99 38 -151 47 -87 104 -138 217 -195 43 -22 53 -31 40 -36 -24 -9 -121 39 -186 92 -29 24 -59 44 -65 44 -36 0 -110 -94 -122 -155 -3 -19 -10 -37 -14 -40 -12 -7 -1 -150 15 -196 21 -57 73 -126 105 -138 23 -8 35 -4 71 20 48 32 94 37 144 15 36 -15 54 -10 140 42 73 44 82 55 90 113 9 67 61 119 118 119 29 0 93 -42 90 -58 -2 -7 1 -12 6 -12 16 0 19 -55 5 -89 -23 -56 -27 -43 84 -256 31 -60 70 -105 91 -105 38 -2 96 -31 123 -64 28 -35 32 -36 96 -36 100 1 107 9 109 128 6 269 3 503 -6 520 -14 26 -61 53 -143 82 -66 24 -68 24 -115 7 -71 -25 -107 -22 -145 12 -33 29 -33 31 -31 111 2 78 0 85 -31 134 -47 72 -76 96 -125 101 -44 5 -94 34 -111 65 -15 28 -12 83 6 108 20 30 66 52 105 52 24 0 41 -9 67 -37 34 -37 34 -37 28 -107 -5 -65 -4 -75 22 -118 15 -25 42 -63 60 -82 27 -30 39 -36 75 -36 67 0 126 -50 127 -107 0 -26 47 -63 110 -86 58 -22 73 -21 94 2 15 17 17 51 16 340 0 228 -4 327 -12 341 -6 10 -56 44 -109 75 -153 88 -167 94 -208 83 -82 -21 -100 -20 -133 3 -48 34 -57 49 -58 96 0 34 6 47 36 77 39 39 65 44 117 22 38 -16 70 -58 75 -101 5 -40 25 -70 59 -88 189 -100 193 -101 219 -62 13 21 16 51 15 177 -2 193 -4 205 -29 255 -55 107 -183 157 -297 116z m158 -29 c55 -19 108 -75 125 -133 7 -23 12 -111 12 -219 l0 -180 -115 65 c-106 60 -115 68 -115 95 0 48 -36 105 -80 128 -49 25 -83 25 -136 1 -51 -23 -90 -93 -80 -143 20 -101 125 -157 210 -113 15 8 32 15 36 15 4 0 69 -34 144 -76 l136 -76 0 -335 c0 -264 -3 -334 -12 -330 -144 56 -148 59 -148 84 0 31 -21 72 -55 103 -21 20 -38 25 -83 27 l-57 1 -52 79 -52 78 16 46 c16 45 16 47 -8 95 -57 115 -199 117 -257 4 -26 -52 -23 -96 10 -143 27 -37 99 -70 136 -62 26 5 32 -1 80 -71 l52 -76 -14 -43 c-45 -132 111 -249 219 -164 l25 20 100 -42 100 -42 0 -309 0 -308 -72 0 c-71 1 -74 2 -93 33 -23 37 -65 59 -113 62 -32 2 -37 8 -112 144 l-78 141 19 37 c25 48 24 79 -4 128 -30 53 -77 77 -141 72 -43 -4 -55 -10 -88 -45 -33 -36 -38 -47 -38 -90 l0 -48 -89 -55 c-87 -55 -88 -55 -111 -37 -14 12 -39 18 -69 18 -43 0 -63 -8 -123 -52 -24 -17 -51 9 -91 91 -27 56 -32 76 -32 141 0 65 4 84 33 140 17 36 41 76 52 89 l20 23 52 -47 c29 -27 89 -65 132 -86 71 -35 82 -37 100 -25 13 8 21 24 21 41 0 25 -9 33 -83 70 -96 49 -162 108 -200 180 -23 43 -27 63 -27 135 0 95 18 146 78 215 l33 38 26 -41 c60 -89 113 -114 145 -65 13 19 11 25 -32 73 -26 29 -51 63 -56 77 -13 36 -11 109 5 147 31 75 146 166 209 166 32 0 44 15 57 75 15 70 52 120 113 155 69 40 77 39 66 -7 -15 -66 14 -103 62 -80 19 10 25 23 30 63 10 80 42 122 114 148 53 19 92 19 148 0z"/> <path d="M1762 3150 c-67 -25 -108 -63 -128 -117 -9 -26 -20 -52 -24 -58 -9 -14 -5 -704 4 -733 10 -31 53 -50 106 -47 38 3 50 10 80 44 19 22 52 47 73 56 49 20 89 4 140 -58 34 -41 42 -46 92 -52 45 -6 60 -4 81 11 79 56 76 55 144 49 60 -5 69 -3 110 23 25 16 73 56 108 88 l62 59 0 82 c0 65 -5 94 -23 136 -28 62 -98 128 -155 145 -58 17 -81 41 -102 100 -24 68 -52 105 -105 142 -45 31 -92 39 -113 18 -7 -7 -12 -33 -12 -59 0 -26 -4 -50 -9 -54 -10 -5 -31 54 -31 86 0 27 -29 77 -61 103 -55 47 -166 64 -237 36z m182 -39 c58 -29 84 -72 95 -155 9 -79 20 -94 58 -80 27 9 28 12 28 82 0 44 4 72 11 72 5 0 31 -13 57 -30 56 -35 104 -99 112 -149 10 -63 17 -69 94 -92 111 -33 202 -153 179 -237 -6 -21 -6 -44 1 -62 9 -28 6 -31 -94 -114 l-103 -85 -39 15 c-52 20 -115 5 -152 -37 -22 -25 -33 -29 -77 -29 -51 0 -53 1 -76 42 -33 59 -68 82 -126 82 -60 0 -109 -27 -131 -71 -15 -30 -20 -33 -63 -33 -25 0 -53 -3 -62 -6 -14 -6 -16 30 -16 362 0 233 4 383 11 408 6 21 27 56 47 78 66 70 153 84 246 39z"/> <path d="M2000 2768 c-138 -71 -85 -268 72 -268 41 0 54 5 86 35 84 75 69 190 -31 236 -54 24 -74 24 -127 -3z m128 -34 c70 -49 63 -151 -15 -192 -30 -16 -56 -15 -96 4 -38 18 -52 36 -61 79 -8 37 20 95 55 112 33 17 90 16 117 -3z"/> <path d="M2625 2378 c-32 -18 -157 -120 -187 -153 -19 -20 -28 -41 -28 -63 0 -82 -63 -141 -135 -128 -24 5 -47 21 -77 56 -65 74 -151 88 -202 32 -21 -25 -72 -43 -101 -37 -11 2 -25 4 -30 4 -6 1 -28 17 -48 36 -35 33 -41 35 -107 35 -110 0 -103 35 -102 -517 2 -535 -6 -494 98 -548 32 -16 61 -32 64 -36 11 -11 79 -39 98 -39 11 0 37 6 58 13 22 8 50 11 64 7 63 -17 85 -48 93 -133 4 -30 13 -47 43 -73 38 -33 41 -34 115 -31 65 2 80 -1 99 -18 83 -74 39 -195 -70 -195 -34 0 -48 6 -76 34 -29 29 -34 41 -34 79 0 79 -81 147 -151 127 -76 -22 -143 21 -155 100 -7 46 -18 57 -102 104 -79 44 -118 47 -133 9 -14 -37 -12 -388 2 -416 27 -52 134 -122 246 -161 44 -15 55 -36 20 -36 -30 0 -73 18 -155 64 -78 44 -96 45 -112 5 -17 -40 -7 -200 15 -252 22 -52 96 -124 153 -149 69 -31 181 -31 245 1 53 26 95 81 104 137 6 39 33 47 33 9 0 -35 37 -65 79 -65 129 0 292 181 215 237 -10 7 -29 13 -42 13 -44 0 -17 24 40 36 127 25 179 62 225 162 44 96 29 184 -35 197 -43 10 -92 34 -92 46 0 7 8 9 23 4 56 -17 118 -17 162 -1 47 18 115 87 115 116 0 9 6 22 13 29 19 19 16 197 -5 242 -27 55 -51 73 -93 65 -19 -4 -35 -4 -35 0 0 4 24 30 53 58 71 69 83 86 92 132 5 21 10 46 12 54 5 21 5 108 -1 149 -7 46 -55 139 -84 162 -39 30 -72 24 -138 -27 -58 -45 -131 -84 -160 -84 -26 0 -14 15 28 35 202 96 299 264 253 439 -22 83 -49 123 -88 131 -18 4 -39 8 -47 10 -8 2 -24 -1 -35 -7z m66 -28 c32 -9 40 -18 60 -68 70 -170 -13 -346 -208 -439 -40 -19 -77 -41 -83 -48 -15 -18 -4 -52 20 -65 33 -18 170 52 251 127 l36 34 27 -36 c51 -67 77 -138 77 -212 0 -121 -41 -204 -127 -259 -55 -35 -62 -50 -44 -85 13 -23 48 -25 79 -2 23 15 25 15 38 -3 22 -30 43 -113 43 -168 -2 -126 -88 -236 -185 -236 -22 0 -53 7 -69 15 -15 8 -36 15 -46 15 -25 0 -53 -35 -46 -58 8 -25 85 -62 130 -62 l36 0 0 -57 c-1 -98 -51 -182 -134 -225 -23 -12 -71 -23 -110 -27 -69 -6 -71 -7 -74 -34 -5 -41 14 -57 64 -57 l43 0 -13 -32 c-36 -86 -118 -147 -205 -155 l-56 -5 3 51 c4 46 2 52 -22 62 -37 17 -62 -8 -69 -71 -12 -99 -73 -144 -197 -145 -115 0 -189 44 -242 145 -19 38 -24 63 -26 157 l-4 112 69 -45 c58 -38 170 -84 206 -84 16 0 47 31 47 48 0 25 -31 52 -59 52 -35 1 -95 29 -186 87 l-74 48 -1 218 0 219 68 -38 c37 -21 77 -43 89 -49 16 -7 23 -19 23 -38 0 -101 114 -177 204 -136 21 10 29 7 65 -21 37 -30 41 -38 41 -77 0 -78 50 -138 124 -150 44 -7 117 27 142 65 24 36 24 120 1 156 -38 57 -120 82 -181 55 -22 -11 -29 -8 -63 21 -34 30 -39 40 -44 92 -5 46 -12 65 -35 89 -47 49 -123 59 -181 23 -20 -13 -32 -8 -137 49 l-116 62 0 485 0 485 64 0 c58 0 66 -3 86 -28 60 -77 170 -77 236 -1 17 19 26 21 72 15 47 -5 54 -9 70 -41 9 -19 33 -45 52 -58 29 -20 44 -23 89 -19 48 3 59 9 93 45 33 36 38 47 38 91 0 49 0 49 76 113 42 34 88 73 103 85 31 26 26 26 72 13z"/> <path d="M1969 1717 c-20 -14 -41 -41 -53 -69 -18 -45 -19 -48 -2 -93 31 -79 113 -119 191 -91 16 5 42 -13 128 -90 l107 -97 -6 -47 c-7 -56 9 -94 58 -135 29 -25 38 -27 96 -23 57 4 68 8 93 36 35 39 50 92 39 133 -23 80 -73 114 -159 107 l-55 -5 -108 96 -108 95 6 46 c14 120 -126 205 -227 137z m157 -41 c31 -31 34 -39 34 -92 l0 -58 73 -69 c141 -135 148 -139 229 -142 67 -2 73 -4 101 -35 26 -29 29 -38 24 -79 -4 -34 -12 -52 -36 -73 -83 -74 -200 1 -184 118 5 36 2 44 -34 80 -57 58 -158 143 -190 159 -17 9 -40 13 -60 9 -83 -15 -143 31 -143 110 0 31 7 45 36 72 50 48 102 48 150 0z"/> <path d="M602 1456 c-103 -60 -132 -87 -147 -140 -22 -74 -57 -106 -116 -106 -42 0 -50 4 -76 36 -69 87 -80 95 -106 83 -16 -7 -35 -33 -51 -68 -34 -75 -32 -179 6 -262 30 -66 57 -94 117 -121 45 -21 120 -20 145 1 7 6 17 6 25 2 20 -13 -13 -39 -64 -52 -64 -16 -78 -37 -72 -101 8 -80 27 -127 72 -174 45 -48 97 -74 149 -74 37 0 243 69 282 95 13 8 33 33 44 56 47 92 162 103 205 19 30 -58 13 -117 -42 -150 -45 -27 -76 -25 -134 6 -46 25 -51 26 -96 14 -26 -8 -91 -30 -143 -50 -120 -47 -133 -65 -96 -137 29 -58 66 -94 126 -122 97 -46 151 -36 165 30 8 36 22 37 36 2 38 -96 47 -109 100 -138 89 -48 215 -37 305 27 53 38 76 69 102 141 21 55 22 74 22 386 0 389 5 370 -102 373 l-66 2 -52 -48 c-50 -47 -53 -48 -102 -44 -38 4 -56 11 -69 29 -33 42 -40 85 -22 140 16 49 16 50 -13 107 -46 93 -106 195 -126 218 -11 13 -37 24 -61 27 -23 4 -55 9 -72 12 -21 4 -42 -2 -73 -19z m155 -26 c26 0 35 -12 105 -141 70 -128 76 -143 64 -163 -52 -83 1 -205 97 -219 65 -9 137 26 156 77 6 15 20 19 80 21 l72 3 -3 -356 c-3 -348 -4 -358 -25 -399 -68 -127 -219 -185 -341 -133 -62 27 -93 65 -100 126 -5 51 -20 67 -59 62 -26 -3 -28 -7 -31 -50 l-3 -48 -37 0 c-45 0 -117 32 -155 68 -16 15 -40 49 -54 76 -20 39 -22 50 -11 57 7 5 18 9 24 9 5 0 66 20 133 45 l124 45 29 -25 c58 -49 148 -42 203 15 40 42 47 120 13 170 -52 78 -157 90 -221 26 -18 -18 -38 -48 -43 -67 -9 -32 -15 -35 -119 -72 -176 -63 -180 -63 -219 -45 -88 43 -142 125 -147 228 l-3 55 45 5 c66 8 114 39 114 74 0 40 -26 54 -67 37 -44 -18 -92 -25 -123 -17 -35 9 -93 62 -118 110 -44 83 -19 306 34 306 10 0 27 -19 40 -47 19 -37 35 -53 71 -71 40 -20 51 -22 86 -13 22 6 51 20 65 31 29 23 60 94 52 121 -4 13 2 22 25 34 17 9 58 33 91 55 58 37 61 38 94 24 19 -8 47 -14 62 -14z"/> </g> </svg> 